#!OML:ASF F:\VICON\USERDATA\INSTALL\rory3\rory3.ASF
:FULLY-SPECIFIED
:DEGREES
530
root 1.25356 15.8547 38.3755 2.31475 1.79785 -1.46608
lowerback 11.6105 1.10812 -3.71479
upperback -4.5069 1.13497 2.3069
thorax -11.5942 0.926843 4.38041
lowerneck -10.4008 -7.05158 -4.35261
upperneck 19.2495 -9.85913 4.35281
head 8.1062 -4.59722 1.13775
rclavicle 4.73356e-015 1.55052e-014
rhumerus -32.9403 4.63716 -83.1486
rradius 27.2967
rwrist 4.23321
rhand -9.5375 20.6771
rfingers 7.12502
rthumb 16.429 -8.64723
lclavicle 4.73356e-015 1.55052e-014
lhumerus -38.6677 12.5239 79.908
lradius 21.0275
lwrist -4.70295
lhand -3.60662 18.4464
lfingers 7.12502
lthumb 22.1317 47.1997
rfemur 22.0217 9.94238 28.9278
rtibia 5.08889e-014
rfoot -10.1681 -8.86145
rtoes -6.06618
lfemur -33.5119 -21.1746 -12.3773
ltibia 27.212
lfoot -7.82559 13.4436
ltoes 26.0116
531
root 1.29493 15.8637 38.5254 2.31108 1.69188 -1.3169
lowerback 11.8875 1.09992 -3.8525
upperback -4.8834 1.09059 2.28554
thorax -12.19 0.938085 4.45014
lowerneck -10.0402 -6.97611 -4.32221
upperneck 19.5683 -9.75436 4.17003
head 8.13128 -4.56593 1.09424
rclavicle -4.89507e-015 7.95139e-015
rhumerus -33.8941 4.88412 -83.255
rradius 26.9934
rwrist 3.87211
rhand -9.64472 20.7951
rfingers 7.12502
rthumb 16.3258 -8.53769
lclavicle -4.89507e-015 7.95139e-015
lhumerus -39.397 12.7782 79.5202
lradius 20.6268
lwrist -5.25569
lhand -3.48128 18.5821
lfingers 7.12502
lthumb 22.252 47.3211
rfemur 22.564 9.8435 28.5852
rtibia 0
rfoot -9.6846 -8.57175
rtoes -6.65715
lfemur -33.2071 -21.2697 -12.7743
ltibia 27.4455
lfoot -6.72211 13.8807
ltoes 25.5618
532
root 1.33128 15.8568 38.6732 2.21033 1.53448 -0.912486
lowerback 11.5731 1.12939 -4.24734
upperback -4.70672 1.05961 2.14484
thorax -11.8025 0.933075 4.52404
lowerneck -10.2306 -7.04879 -4.29238
upperneck 19.5397 -9.8689 4.24421
head 8.16386 -4.60766 1.09418
rclavicle 4.58447e-015 1.23246e-014
rhumerus -33.8438 4.54411 -83.1669
rradius 26.661
rwrist 4.5156
rhand -9.38286 20.8109
rfingers 7.12502
rthumb 16.5779 -8.50103
lclavicle 4.58447e-015 1.23246e-014
lhumerus -39.1524 13.137 79.2331
lradius 20.1491
lwrist -5.81252
lhand -3.43494 18.7962
lfingers 7.12502
lthumb 22.2965 47.5298
rfemur 23.2421 9.76569 28.0309
rtibia -1.27222e-013
rfoot -9.19774 -8.34684
rtoes -7.9262
lfemur -32.7763 -21.0567 -13.5738
ltibia 27.8763
lfoot -5.80746 14.0351
ltoes 25.163
533
root 1.36637 15.8521 38.817 2.1299 1.37494 -0.5312
lowerback 11.6262 1.17758 -4.67134
upperback -4.7419 1.04033 2.03698
thorax -11.883 0.95423 4.65152
lowerneck -10.2466 -7.07969 -4.38926
upperneck 19.5992 -9.93575 4.41932
head 8.20455 -4.62855 1.15773
rclavicle -1.11816e-015 7.95139e-016
rhumerus -34.2578 4.38202 -83.1559
rradius 26.4203
rwrist 5.10248
rhand -9.83025 21.1789
rfingers 7.12502
rthumb 16.1471 -8.16847
lclavicle -1.11816e-015 7.95139e-016
lhumerus -39.3349 13.1904 79.0625
lradius 19.9318
lwrist -6.07289
lhand -3.49019 18.8995
lfingers 7.12502
lthumb 22.2434 47.6395
rfemur 23.8614 9.69272 27.5117
rtibia 6.67916e-014
rfoot -8.79345 -8.1425
rtoes -7.98182
lfemur -32.3385 -20.6592 -14.3856
ltibia 28.3021
lfoot -5.27874 14.0707
ltoes 25.8201
534
root 1.39234 15.8238 38.9533 1.9109 1.12549 -0.571275
lowerback 11.8983 1.23477 -4.87723
upperback -4.76595 1.07995 2.11859
thorax -12.0896 0.999993 4.85172
lowerneck -10.1331 -7.06982 -4.49696
upperneck 19.6235 -9.92767 4.50725
head 8.2023 -4.62639 1.20832
rclavicle -4.64659e-015 1.59028e-014
rhumerus -34.6509 4.37225 -83.1976
rradius 25.9377
rwrist 5.52355
rhand -10.5202 21.7079
rfingers 7.12502
rthumb 15.4826 -7.69213
lclavicle -4.64659e-015 1.59028e-014
lhumerus -39.5645 13.6334 78.7023
lradius 19.5125
lwrist -6.63156
lhand -3.59216 18.4762
lfingers 7.12502
lthumb 22.1456 47.2279
rfemur 24.5598 9.68337 27.5264
rtibia 3.18055e-014
rfoot -8.22345 -8.00681
rtoes -8.27591
lfemur -31.8803 -19.7633 -14.8137
ltibia 28.8711
lfoot -4.9607 13.6668
ltoes 27.1674
